# 3ds Max Wavefront OBJ Exporter v0.97b - (c)2007 guruware
# File Created: 26.04.2018 20:40:42

mtllib broken_bench.mtl

#
# object Box001
#

v  -18.4288 0.0000 -1.8993
v  -18.4288 0.0000 -3.0318
v  -17.4449 0.0000 -3.0318
v  -17.4449 0.0000 -1.8993
v  -18.4288 7.5293 -1.8993
v  -17.4449 7.5293 -1.8993
v  -17.4449 7.5293 -3.0318
v  -18.4288 7.5293 -3.0318
# 8 vertices

vn -0.5774 -0.5774 0.5774
vn -0.5774 -0.5774 -0.5774
vn 0.5774 -0.5774 -0.5774
vn 0.5774 -0.5774 0.5774
vn -0.5774 0.5774 0.5774
vn 0.5774 0.5774 0.5774
vn 0.5774 0.5774 -0.5774
vn -0.5774 0.5774 -0.5774
# 8 vertex normals

vt 0.9050 0.9531 0.0000
vt 0.9380 0.9531 0.0000
vt 0.9380 0.9754 0.0000
vt 0.9050 0.9754 0.0000
vt 0.9813 0.9531 0.0000
vt 0.9813 0.9754 0.0000
vt 0.9483 0.9754 0.0000
vt 0.9483 0.9531 0.0000
vt 0.5370 0.9531 0.0000
vt 0.5370 0.9754 0.0000
vt 0.3662 0.9754 0.0000
vt 0.3662 0.9531 0.0000
vt 0.3542 0.9531 0.0000
vt 0.3542 0.9861 0.0000
vt 0.1833 0.9861 0.0000
vt 0.1833 0.9531 0.0000
vt 0.7198 0.9291 0.0000
vt 0.7198 0.9514 0.0000
vt 0.5490 0.9514 0.0000
vt 0.5490 0.9291 0.0000
vt 0.9861 0.3542 0.0000
vt 0.9531 0.3542 0.0000
vt 0.9531 0.1833 0.0000
vt 0.9861 0.1833 0.0000
# 24 texture coords

o Box001
g Box001
usemtl 08___Default
s 2
f 1/1/1 2/2/2 3/3/3 4/4/4 
s 4
f 5/5/5 6/6/6 7/7/7 8/8/8 
s 8
f 1/9/1 4/10/4 6/11/6 5/12/5 
s 16
f 4/13/4 3/14/3 7/15/7 6/16/6 
s 32
f 3/17/3 2/18/2 8/19/8 7/20/7 
s 64
f 2/21/2 1/22/1 5/23/5 8/24/8 
# 6 polygons

#
# object Box002
#

v  18.1812 0.4919 -6.1746
v  17.7939 0.4919 -7.2388
v  17.7939 -0.4919 -7.2388
v  18.1812 -0.4919 -6.1746
v  25.2565 0.4919 -8.7497
v  25.2565 -0.4919 -8.7497
v  24.8692 -0.4919 -9.8140
v  24.8692 0.4919 -9.8140
# 8 vertices

vn -0.3451 0.5774 0.7400
vn -0.7400 0.5774 -0.3451
vn -0.7400 -0.5774 -0.3451
vn -0.3451 -0.5774 0.7400
vn 0.7400 0.5774 0.3451
vn 0.7400 -0.5774 0.3451
vn 0.3451 -0.5774 -0.7400
vn 0.3451 0.5774 -0.7400
# 8 vertex normals

vt 0.9050 0.9772 0.0000
vt 0.9380 0.9772 0.0000
vt 0.9380 0.9995 0.0000
vt 0.9050 0.9995 0.0000
vt 0.9813 0.9772 0.0000
vt 0.9813 0.9995 0.0000
vt 0.9483 0.9995 0.0000
vt 0.9483 0.9772 0.0000
vt 0.5370 0.9291 0.0000
vt 0.5370 0.9514 0.0000
vt 0.3662 0.9514 0.0000
vt 0.3662 0.9291 0.0000
vt 0.9146 0.3662 0.0000
vt 0.9476 0.3662 0.0000
vt 0.9476 0.5370 0.0000
vt 0.9146 0.5370 0.0000
vt 0.5370 0.9050 0.0000
vt 0.5370 0.9273 0.0000
vt 0.3662 0.9273 0.0000
vt 0.3662 0.9050 0.0000
vt 0.9476 0.3542 0.0000
vt 0.9146 0.3542 0.0000
vt 0.9146 0.1833 0.0000
vt 0.9476 0.1833 0.0000
# 24 texture coords

o Box002
g Box002
usemtl 08___Default
s 2
f 9/25/9 10/26/10 11/27/11 12/28/12 
s 4
f 13/29/13 14/30/14 15/31/15 16/32/16 
s 8
f 9/33/9 12/34/12 14/35/14 13/36/13 
s 16
f 12/37/12 11/38/11 15/39/15 14/40/14 
s 32
f 11/41/11 10/42/10 16/43/16 15/44/15 
s 64
f 10/45/10 9/46/9 13/47/13 16/48/16 
# 6 polygons

#
# object Box003
#

v  -18.4288 0.0000 3.1091
v  -18.4288 0.0000 1.9766
v  -17.4449 0.0000 1.9766
v  -17.4449 0.0000 3.1091
v  -18.4288 7.5293 3.1091
v  -17.4449 7.5293 3.1091
v  -17.4449 7.5293 1.9766
v  -18.4288 7.5293 1.9766
# 8 vertices

vn -0.5774 -0.5774 0.5774
vn -0.5774 -0.5774 -0.5774
vn 0.5774 -0.5774 -0.5774
vn 0.5774 -0.5774 0.5774
vn -0.5774 0.5774 0.5774
vn 0.5774 0.5774 0.5774
vn 0.5774 0.5774 -0.5774
vn -0.5774 0.5774 -0.5774
# 8 vertex normals

vt 0.9050 0.9476 0.0000
vt 0.9050 0.9146 0.0000
vt 0.9273 0.9146 0.0000
vt 0.9273 0.9476 0.0000
vt 0.8947 0.9531 0.0000
vt 0.8947 0.9754 0.0000
vt 0.8617 0.9754 0.0000
vt 0.8617 0.9531 0.0000
vt 0.1713 0.9676 0.0000
vt 0.1713 0.9899 0.0000
vt 0.0005 0.9899 0.0000
vt 0.0005 0.9676 0.0000
vt 0.9531 0.7318 0.0000
vt 0.9861 0.7318 0.0000
vt 0.9861 0.9026 0.0000
vt 0.9531 0.9026 0.0000
vt 0.3542 0.9291 0.0000
vt 0.3542 0.9514 0.0000
vt 0.1833 0.9514 0.0000
vt 0.1833 0.9291 0.0000
vt 0.9146 0.7318 0.0000
vt 0.9476 0.7318 0.0000
vt 0.9476 0.9026 0.0000
vt 0.9146 0.9026 0.0000
# 24 texture coords

o Box003
g Box003
usemtl 08___Default
s 2
f 17/49/17 18/50/18 19/51/19 20/52/20 
s 4
f 21/53/21 22/54/22 23/55/23 24/56/24 
s 8
f 17/57/17 20/58/20 22/59/22 21/60/21 
s 16
f 20/61/20 19/62/19 23/63/23 22/64/22 
s 32
f 19/65/19 18/66/18 24/67/24 23/68/23 
s 64
f 18/69/18 17/70/17 21/71/21 24/72/24 
# 6 polygons

#
# object Box004
#

v  10.8208 0.4919 3.0333
v  11.3871 0.4919 2.0525
v  11.3871 -0.4919 2.0525
v  10.8208 -0.4919 3.0333
v  17.3414 0.4919 6.7979
v  17.3414 -0.4919 6.7979
v  17.9077 -0.4919 5.8171
v  17.9077 0.4919 5.8171
# 8 vertices

vn -0.7887 0.5774 0.2113
vn -0.2113 0.5774 -0.7887
vn -0.2113 -0.5774 -0.7887
vn -0.7887 -0.5774 0.2113
vn 0.2113 0.5774 0.7887
vn 0.2113 -0.5774 0.7887
vn 0.7887 -0.5774 -0.2113
vn 0.7887 0.5774 -0.2113
# 8 vertex normals

vt 0.8906 0.8803 0.0000
vt 0.8906 0.8473 0.0000
vt 0.9129 0.8473 0.0000
vt 0.9129 0.8803 0.0000
vt 0.7648 0.9531 0.0000
vt 0.7648 0.9754 0.0000
vt 0.7318 0.9754 0.0000
vt 0.7318 0.9531 0.0000
vt 0.9026 0.9291 0.0000
vt 0.9026 0.9514 0.0000
vt 0.7318 0.9514 0.0000
vt 0.7318 0.9291 0.0000
vt 0.9531 0.3662 0.0000
vt 0.9861 0.3662 0.0000
vt 0.9861 0.5370 0.0000
vt 0.9531 0.5370 0.0000
vt 0.9026 0.9050 0.0000
vt 0.9026 0.9273 0.0000
vt 0.7318 0.9273 0.0000
vt 0.7318 0.9050 0.0000
vt 0.9531 0.5490 0.0000
vt 0.9861 0.5490 0.0000
vt 0.9861 0.7198 0.0000
vt 0.9531 0.7198 0.0000
# 24 texture coords

o Box004
g Box004
usemtl 08___Default
s 2
f 25/73/25 26/74/26 27/75/27 28/76/28 
s 4
f 29/77/29 30/78/30 31/79/31 32/80/32 
s 8
f 25/81/25 28/82/28 30/83/30 29/84/29 
s 16
f 28/85/28 27/86/27 31/87/31 30/88/30 
s 32
f 27/89/27 26/90/26 32/91/32 31/92/31 
s 64
f 26/93/26 25/94/25 29/95/29 32/96/32 
# 6 polygons

#
# object Box005
#

v  -20.1829 7.0970 4.6604
v  -20.1829 7.0970 -4.1025
v  18.3819 0.2970 -4.1025
v  18.3819 0.2970 4.6604
v  -20.0243 7.9964 4.6604
v  18.5405 1.1963 4.6604
v  18.5405 1.1963 -4.1025
v  -20.0243 7.9964 -4.1025
# 8 vertices

vn -0.6688 -0.4683 0.5774
vn -0.6688 -0.4683 -0.5774
vn 0.4683 -0.6688 -0.5774
vn 0.4683 -0.6688 0.5774
vn -0.4683 0.6688 0.5774
vn 0.6688 0.4683 0.5774
vn 0.6688 0.4683 -0.5774
vn -0.4683 0.6688 -0.5774
# 8 vertex normals

vt 0.0005 0.1993 0.0000
vt 0.0005 0.0005 0.0000
vt 0.8890 0.0005 0.0000
vt 0.8890 0.1993 0.0000
vt 0.0005 0.2026 0.0000
vt 0.8890 0.2026 0.0000
vt 0.8890 0.4014 0.0000
vt 0.0005 0.4014 0.0000
vt 0.0005 0.4046 0.0000
vt 0.8890 0.4046 0.0000
vt 0.8890 0.4254 0.0000
vt 0.0005 0.4254 0.0000
vt 0.9113 0.0005 0.0000
vt 0.9113 0.1993 0.0000
vt 0.8906 0.1993 0.0000
vt 0.8906 0.0005 0.0000
vt 0.0005 0.4287 0.0000
vt 0.8890 0.4287 0.0000
vt 0.8890 0.4494 0.0000
vt 0.0005 0.4494 0.0000
vt 0.9113 0.2122 0.0000
vt 0.9113 0.4110 0.0000
vt 0.8906 0.4110 0.0000
vt 0.8906 0.2122 0.0000
# 24 texture coords

o Box005
g Box005
usemtl 08___Default
s 2
f 33/97/33 34/98/34 35/99/35 36/100/36 
s 4
f 37/101/37 38/102/38 39/103/39 40/104/40 
s 8
f 33/105/33 36/106/36 38/107/38 37/108/37 
s 16
f 36/109/36 35/110/35 39/111/39 38/112/38 
s 32
f 35/113/35 34/114/34 40/115/40 39/116/39 
s 64
f 34/117/34 33/118/33 37/119/37 40/120/40 
# 6 polygons

#
# object Box006
#

v  -18.3411 7.4758 -2.9585
v  -18.3753 7.2821 -4.0739
v  -17.4063 7.1113 -4.0739
v  -17.3722 7.3050 -2.9585
v  -17.0535 14.7781 -4.2660
v  -16.0846 14.6072 -4.2660
v  -16.1188 14.4136 -5.3813
v  -17.0877 14.5844 -5.3813
# 8 vertices

vn -0.6499 -0.3610 0.6688
vn -0.6847 -0.5584 -0.4683
vn 0.4524 -0.7589 -0.4683
vn 0.4873 -0.5615 0.6688
vn -0.4524 0.7589 0.4683
vn 0.6847 0.5584 0.4683
vn 0.6499 0.3610 -0.6688
vn -0.4873 0.5615 -0.6688
# 8 vertex normals

vt 0.7751 0.9531 0.0000
vt 0.8081 0.9531 0.0000
vt 0.8081 0.9754 0.0000
vt 0.7751 0.9754 0.0000
vt 0.8514 0.9531 0.0000
vt 0.8514 0.9754 0.0000
vt 0.8184 0.9754 0.0000
vt 0.8184 0.9531 0.0000
vt 0.1713 0.9435 0.0000
vt 0.1713 0.9658 0.0000
vt 0.0005 0.9658 0.0000
vt 0.0005 0.9435 0.0000
vt 0.9146 0.5490 0.0000
vt 0.9476 0.5490 0.0000
vt 0.9476 0.7198 0.0000
vt 0.9146 0.7198 0.0000
vt 0.7198 0.9050 0.0000
vt 0.7198 0.9273 0.0000
vt 0.5490 0.9273 0.0000
vt 0.5490 0.9050 0.0000
vt 0.9531 0.0005 0.0000
vt 0.9861 0.0005 0.0000
vt 0.9861 0.1713 0.0000
vt 0.9531 0.1713 0.0000
# 24 texture coords

o Box006
g Box006
usemtl 08___Default
s 2
f 41/121/41 42/122/42 43/123/43 44/124/44 
s 4
f 45/125/45 46/126/46 47/127/47 48/128/48 
s 8
f 41/129/41 44/130/44 46/131/46 45/132/45 
s 16
f 44/133/44 43/134/43 47/135/47 46/136/46 
s 32
f 43/137/43 42/138/42 48/139/48 47/140/47 
s 64
f 42/141/42 41/142/41 45/143/45 48/144/48 
# 6 polygons

#
# object Box007
#

v  16.0891 1.2594 -2.9585
v  16.0550 1.0657 -4.0739
v  17.0239 0.8949 -4.0739
v  17.0581 1.0886 -2.9585
v  17.3767 8.5617 -4.2660
v  18.3457 8.3908 -4.2660
v  18.3115 8.1972 -5.3813
v  17.3426 8.3680 -5.3813
# 8 vertices

vn -0.6499 -0.3610 0.6688
vn -0.6847 -0.5584 -0.4683
vn 0.4524 -0.7589 -0.4683
vn 0.4873 -0.5615 0.6688
vn -0.4524 0.7589 0.4683
vn 0.6847 0.5584 0.4683
vn 0.6499 0.3610 -0.6688
vn -0.4873 0.5615 -0.6688
# 8 vertex normals

vt 0.9291 0.9476 0.0000
vt 0.9291 0.9146 0.0000
vt 0.9514 0.9146 0.0000
vt 0.9514 0.9476 0.0000
vt 0.9531 0.9146 0.0000
vt 0.9754 0.9146 0.0000
vt 0.9754 0.9476 0.0000
vt 0.9531 0.9476 0.0000
vt 0.7198 0.9531 0.0000
vt 0.7198 0.9754 0.0000
vt 0.5490 0.9754 0.0000
vt 0.5490 0.9531 0.0000
vt 0.9146 0.0005 0.0000
vt 0.9476 0.0005 0.0000
vt 0.9476 0.1713 0.0000
vt 0.9146 0.1713 0.0000
vt 0.3542 0.9050 0.0000
vt 0.3542 0.9273 0.0000
vt 0.1833 0.9273 0.0000
vt 0.1833 0.9050 0.0000
vt 0.1713 0.9050 0.0000
vt 0.1713 0.9380 0.0000
vt 0.0005 0.9380 0.0000
vt 0.0005 0.9050 0.0000
# 24 texture coords

o Box007
g Box007
usemtl 08___Default
s 2
f 49/145/49 50/146/50 51/147/51 52/148/52 
s 4
f 53/149/53 54/150/54 55/151/55 56/152/56 
s 8
f 49/153/49 52/154/52 54/155/54 53/156/53 
s 16
f 52/157/52 51/158/51 55/159/55 54/160/54 
s 32
f 51/161/51 50/162/50 56/163/56 55/164/55 
s 64
f 50/165/50 49/166/49 53/167/53 56/168/56 
# 6 polygons

#
# object Box008
#

v  -17.2529 7.5291 -2.5728
v  -15.9491 14.9231 -5.3056
v  17.5946 9.0085 -5.3056
v  16.2908 1.6145 -2.5728
v  -17.2034 7.8096 -1.7904
v  16.3403 1.8949 -1.7904
v  17.6440 9.2889 -4.5231
v  -15.8997 15.2036 -4.5231
# 8 vertices

vn -0.6971 -0.6285 -0.3451
vn -0.5087 0.4401 -0.7400
vn 0.6285 0.2396 -0.7400
vn 0.4401 -0.8290 -0.3451
vn -0.6285 -0.2396 0.7400
vn 0.5087 -0.4401 0.7400
vn 0.6971 0.6285 0.3451
vn -0.4401 0.8290 0.3451
# 8 vertex normals

vt 0.0005 0.8777 0.0000
vt 0.0005 0.6789 0.0000
vt 0.8890 0.6789 0.0000
vt 0.8890 0.8777 0.0000
vt 0.0005 0.4528 0.0000
vt 0.8890 0.4528 0.0000
vt 0.8890 0.6516 0.0000
vt 0.0005 0.6516 0.0000
vt 0.0005 0.6548 0.0000
vt 0.8890 0.6548 0.0000
vt 0.8890 0.6755 0.0000
vt 0.0005 0.6755 0.0000
vt 0.9113 0.4239 0.0000
vt 0.9113 0.6227 0.0000
vt 0.8906 0.6227 0.0000
vt 0.8906 0.4239 0.0000
vt 0.0005 0.8810 0.0000
vt 0.8890 0.8810 0.0000
vt 0.8890 0.9017 0.0000
vt 0.0005 0.9017 0.0000
vt 0.9113 0.6356 0.0000
vt 0.9113 0.8344 0.0000
vt 0.8906 0.8344 0.0000
vt 0.8906 0.6356 0.0000
# 24 texture coords

o Box008
g Box008
usemtl 08___Default
s 2
f 57/169/57 58/170/58 59/171/59 60/172/60 
s 4
f 61/173/61 62/174/62 63/175/63 64/176/64 
s 8
f 57/177/57 60/178/60 62/179/62 61/180/61 
s 16
f 60/181/60 59/182/59 63/183/63 62/184/62 
s 32
f 59/185/59 58/186/58 64/187/64 63/188/63 
s 64
f 58/189/58 57/190/57 61/191/61 64/192/64 
# 6 polygons

