# 3ds Max Wavefront OBJ Exporter v0.97b - (c)2007 guruware
# File Created: 26.04.2018 20:24:52

mtllib traffic_lights.mtl

#
# object Cylinder001
#

v  0.0265 0.0000 0.9166
v  -0.9535 0.0000 0.5982
v  -0.9535 0.0000 -0.4322
v  0.0265 0.0000 -0.7506
v  0.6322 0.0000 0.0830
v  0.0265 9.6561 -0.7506
v  0.6322 9.6561 0.0830
v  -0.9535 9.6561 -0.4322
v  -0.9535 9.6561 0.5982
v  0.0265 9.6561 0.9166
v  0.0265 19.3121 -0.7506
v  0.6322 19.3121 0.0830
v  -0.9535 19.3121 -0.4322
v  -0.9535 19.3121 0.5982
v  0.0265 19.3121 0.9166
v  0.0265 28.9682 -0.7506
v  0.6322 28.9682 0.0830
v  -0.9535 28.9682 -0.4322
v  -0.9535 28.9682 0.5982
v  0.0265 28.9682 0.9166
v  0.0265 38.6242 -0.7506
v  0.6322 38.6242 0.0830
v  -0.9535 38.6242 -0.4322
v  -0.9535 38.6242 0.5982
v  0.0265 38.6242 0.9166
v  0.0265 48.2803 -0.7506
v  0.6322 48.2803 0.0830
v  -0.9535 48.2803 -0.4322
v  -0.9535 48.2803 0.5982
v  0.0265 48.2803 0.9166
# 30 vertices

vn 0.2483 -0.5957 0.7638
vn -0.6498 -0.5957 0.4720
vn -0.6498 -0.5957 -0.4720
vn 0.2483 -0.5957 -0.7638
vn 0.8032 -0.5957 -0.0000
vn 0.3091 0.0000 -0.9510
vn 1.0000 0.0000 -0.0000
vn -0.8091 0.0000 -0.5877
vn -0.8091 0.0000 0.5877
vn 0.3091 0.0000 0.9510
vn 0.2483 0.5957 -0.7638
vn 0.8032 0.5957 -0.0000
vn -0.6498 0.5957 -0.4720
vn -0.6498 0.5957 0.4720
vn 0.2483 0.5957 0.7638
# 15 vertex normals

vt 0.9730 0.9139 0.0000
vt 0.9302 0.8999 0.0000
vt 0.9302 0.8549 0.0000
vt 0.9730 0.8410 0.0000
vt 0.9995 0.8774 0.0000
vt 0.0369 0.0052 0.0000
vt 0.0734 0.0052 0.0000
vt 0.0734 0.1888 0.0000
vt 0.0369 0.1888 0.0000
vt 0.0756 0.0568 0.0000
vt 0.1185 0.0568 0.0000
vt 0.1185 0.2405 0.0000
vt 0.0756 0.2405 0.0000
vt 0.9939 0.0005 0.0000
vt 0.9939 0.0456 0.0000
vt 0.8102 0.0456 0.0000
vt 0.8102 0.0005 0.0000
vt 0.1226 0.0568 0.0000
vt 0.1654 0.0568 0.0000
vt 0.1654 0.2405 0.0000
vt 0.1226 0.2405 0.0000
vt 0.0005 0.0052 0.0000
vt 0.0005 0.1888 0.0000
vt 0.0734 0.3725 0.0000
vt 0.0369 0.3725 0.0000
vt 0.1185 0.4241 0.0000
vt 0.0756 0.4241 0.0000
vt 0.6266 0.0456 0.0000
vt 0.6266 0.0005 0.0000
vt 0.1654 0.4241 0.0000
vt 0.1226 0.4241 0.0000
vt 0.0005 0.3725 0.0000
vt 0.0734 0.5561 0.0000
vt 0.0369 0.5561 0.0000
vt 0.1185 0.6078 0.0000
vt 0.0756 0.6078 0.0000
vt 0.4429 0.0456 0.0000
vt 0.4429 0.0005 0.0000
vt 0.1654 0.6078 0.0000
vt 0.1226 0.6078 0.0000
vt 0.0005 0.5561 0.0000
vt 0.0734 0.7398 0.0000
vt 0.0369 0.7398 0.0000
vt 0.1185 0.7914 0.0000
vt 0.0756 0.7914 0.0000
vt 0.2593 0.0456 0.0000
vt 0.2593 0.0005 0.0000
vt 0.1654 0.7914 0.0000
vt 0.1226 0.7914 0.0000
vt 0.0005 0.7398 0.0000
vt 0.0734 0.9234 0.0000
vt 0.0369 0.9234 0.0000
vt 0.1185 0.9751 0.0000
vt 0.0756 0.9751 0.0000
vt 0.0756 0.0456 0.0000
vt 0.0756 0.0005 0.0000
vt 0.1654 0.9751 0.0000
vt 0.1226 0.9751 0.0000
vt 0.0005 0.9234 0.0000
vt 0.9730 0.5217 0.0000
vt 0.9995 0.5581 0.0000
vt 0.9730 0.5946 0.0000
vt 0.9302 0.5807 0.0000
vt 0.9302 0.5356 0.0000
# 64 texture coords

o Cylinder001
g Cylinder001
usemtl 07___Default
s 1
f 1/1/1 2/2/2 3/3/3 4/4/4 5/5/5 
s 8
f 5/6/5 4/7/4 6/8/6 7/9/7 
f 4/10/4 3/11/3 8/12/8 6/13/6 
f 3/14/3 2/15/2 9/16/9 8/17/8 
f 2/18/2 1/19/1 10/20/10 9/21/9 
f 1/22/1 5/6/5 7/9/7 10/23/10 
f 7/9/7 6/8/6 11/24/6 12/25/7 
f 6/13/6 8/12/8 13/26/8 11/27/6 
f 8/17/8 9/16/9 14/28/9 13/29/8 
f 9/21/9 10/20/10 15/30/10 14/31/9 
f 10/23/10 7/9/7 12/25/7 15/32/10 
f 12/25/7 11/24/6 16/33/6 17/34/7 
f 11/27/6 13/26/8 18/35/8 16/36/6 
f 13/29/8 14/28/9 19/37/9 18/38/8 
f 14/31/9 15/30/10 20/39/10 19/40/9 
f 15/32/10 12/25/7 17/34/7 20/41/10 
f 17/34/7 16/33/6 21/42/6 22/43/7 
f 16/36/6 18/35/8 23/44/8 21/45/6 
f 18/38/8 19/37/9 24/46/9 23/47/8 
f 19/40/9 20/39/10 25/48/10 24/49/9 
f 20/41/10 17/34/7 22/43/7 25/50/10 
f 22/43/7 21/42/6 26/51/11 27/52/12 
f 21/45/6 23/44/8 28/53/13 26/54/11 
f 23/47/8 24/46/9 29/55/14 28/56/13 
f 24/49/9 25/48/10 30/57/15 29/58/14 
f 25/50/10 22/43/7 27/52/12 30/59/15 
s 1
f 30/60/15 27/61/12 26/62/11 28/63/13 29/64/14 
# 27 polygons

#
# object Box001
#

v  -1.4041 48.2958 1.8246
v  -1.4041 48.2958 -1.5742
v  6.1372 48.2958 -1.5742
v  6.1372 48.2958 1.8246
v  -1.4041 49.2465 1.8246
v  6.1372 49.2465 1.8246
v  6.1372 49.2465 -1.5742
v  -1.4041 49.2465 -1.5742
# 8 vertices

vn -0.5774 -0.5774 0.5774
vn -0.5774 -0.5774 -0.5774
vn 0.5774 -0.5774 -0.5774
vn 0.5774 -0.5774 0.5774
vn -0.5774 0.5774 0.5774
vn 0.5774 0.5774 0.5774
vn 0.5774 0.5774 -0.5774
vn -0.5774 0.5774 -0.5774
# 8 vertex normals

vt 0.8175 0.2634 0.0000
vt 0.9056 0.2634 0.0000
vt 0.9056 0.4589 0.0000
vt 0.8175 0.4589 0.0000
vt 0.9337 0.0568 0.0000
vt 0.9337 0.2523 0.0000
vt 0.8457 0.2523 0.0000
vt 0.8457 0.0568 0.0000
vt 0.9349 0.2523 0.0000
vt 0.9349 0.0568 0.0000
vt 0.9595 0.0568 0.0000
vt 0.9595 0.2523 0.0000
vt 0.8175 0.9677 0.0000
vt 0.9056 0.9677 0.0000
vt 0.9056 0.9924 0.0000
vt 0.8175 0.9924 0.0000
vt 0.8421 0.0568 0.0000
vt 0.8421 0.2523 0.0000
vt 0.8175 0.2523 0.0000
vt 0.8175 0.0568 0.0000
vt 0.6438 0.9677 0.0000
vt 0.7319 0.9677 0.0000
vt 0.7319 0.9924 0.0000
vt 0.6438 0.9924 0.0000
# 24 texture coords

o Box001
g Box001
usemtl 07___Default
s 2
f 31/65/16 32/66/17 33/67/18 34/68/19 
s 4
f 35/69/20 36/70/21 37/71/22 38/72/23 
s 8
f 31/73/16 34/74/19 36/75/21 35/76/20 
s 16
f 34/77/19 33/78/18 37/79/22 36/80/21 
s 32
f 33/81/18 32/82/17 38/83/23 37/84/22 
s 64
f 32/85/17 31/86/16 35/87/20 38/88/23 
# 6 polygons

#
# object Cylinder002
#

v  -0.4033 47.2740 0.9166
v  -0.4033 48.2539 0.5982
v  -0.4033 48.2539 -0.4322
v  -0.4033 47.2740 -0.7506
v  -0.4033 46.6683 0.0830
v  1.7796 47.2740 -0.7506
v  1.7796 46.6683 0.0830
v  1.7796 48.2539 -0.4322
v  1.7796 48.2539 0.5982
v  1.7796 47.2740 0.9166
v  3.9625 47.2740 -0.7506
v  3.9625 46.6683 0.0830
v  3.9625 48.2539 -0.4322
v  3.9625 48.2539 0.5982
v  3.9625 47.2740 0.9166
v  6.1454 47.2740 -0.7506
v  6.1454 46.6683 0.0830
v  6.1454 48.2539 -0.4322
v  6.1454 48.2539 0.5982
v  6.1454 47.2740 0.9166
v  8.3283 47.2740 -0.7506
v  8.3283 46.6683 0.0830
v  8.3283 48.2539 -0.4322
v  8.3283 48.2539 0.5982
v  8.3283 47.2740 0.9166
v  10.5112 47.2740 -0.7506
v  10.5112 46.6683 0.0830
v  10.5112 48.2539 -0.4322
v  10.5112 48.2539 0.5982
v  10.5112 47.2740 0.9166
# 30 vertices

vn -0.5957 -0.2483 0.7638
vn -0.5957 0.6498 0.4720
vn -0.5957 0.6498 -0.4720
vn -0.5957 -0.2483 -0.7638
vn -0.5957 -0.8032 -0.0000
vn -0.0000 -0.3091 -0.9510
vn -0.0000 -1.0000 -0.0000
vn 0.0000 0.8091 -0.5877
vn 0.0000 0.8091 0.5877
vn -0.0000 -0.3091 0.9510
vn 0.5957 -0.2483 -0.7638
vn 0.5957 -0.8032 -0.0000
vn 0.5957 0.6498 -0.4720
vn 0.5957 0.6498 0.4720
vn 0.5957 -0.2483 0.7638
# 15 vertex normals

vt 0.9567 0.9161 0.0000
vt 0.9995 0.9300 0.0000
vt 0.9995 0.9751 0.0000
vt 0.9567 0.9890 0.0000
vt 0.9302 0.9525 0.0000
vt 0.3468 0.0568 0.0000
vt 0.3833 0.0568 0.0000
vt 0.3833 0.2405 0.0000
vt 0.3468 0.2405 0.0000
vt 0.2165 0.0568 0.0000
vt 0.2593 0.0568 0.0000
vt 0.2593 0.2405 0.0000
vt 0.2165 0.2405 0.0000
vt 0.2634 0.0568 0.0000
vt 0.3085 0.0568 0.0000
vt 0.3085 0.2405 0.0000
vt 0.2634 0.2405 0.0000
vt 0.1695 0.0568 0.0000
vt 0.2124 0.0568 0.0000
vt 0.2124 0.2405 0.0000
vt 0.1695 0.2405 0.0000
vt 0.3104 0.0568 0.0000
vt 0.3104 0.2405 0.0000
vt 0.3833 0.4241 0.0000
vt 0.3468 0.4241 0.0000
vt 0.2593 0.4241 0.0000
vt 0.2165 0.4241 0.0000
vt 0.3085 0.4241 0.0000
vt 0.2634 0.4241 0.0000
vt 0.2124 0.4241 0.0000
vt 0.1695 0.4241 0.0000
vt 0.3104 0.4241 0.0000
vt 0.3833 0.6078 0.0000
vt 0.3468 0.6078 0.0000
vt 0.2593 0.6078 0.0000
vt 0.2165 0.6078 0.0000
vt 0.3085 0.6078 0.0000
vt 0.2634 0.6078 0.0000
vt 0.2124 0.6078 0.0000
vt 0.1695 0.6078 0.0000
vt 0.3104 0.6078 0.0000
vt 0.3833 0.7914 0.0000
vt 0.3468 0.7914 0.0000
vt 0.2593 0.7914 0.0000
vt 0.2165 0.7914 0.0000
vt 0.3085 0.7914 0.0000
vt 0.2634 0.7914 0.0000
vt 0.2124 0.7914 0.0000
vt 0.1695 0.7914 0.0000
vt 0.3104 0.7914 0.0000
vt 0.3833 0.9751 0.0000
vt 0.3468 0.9751 0.0000
vt 0.2593 0.9751 0.0000
vt 0.2165 0.9751 0.0000
vt 0.3085 0.9751 0.0000
vt 0.2634 0.9751 0.0000
vt 0.2124 0.9751 0.0000
vt 0.1695 0.9751 0.0000
vt 0.3104 0.9751 0.0000
vt 0.9567 0.6697 0.0000
vt 0.9302 0.6333 0.0000
vt 0.9567 0.5968 0.0000
vt 0.9995 0.6107 0.0000
vt 0.9995 0.6558 0.0000
# 64 texture coords

o Cylinder002
g Cylinder002
usemtl 07___Default
s 1
f 39/89/24 40/90/25 41/91/26 42/92/27 43/93/28 
s 8
f 43/94/28 42/95/27 44/96/29 45/97/30 
f 42/98/27 41/99/26 46/100/31 44/101/29 
f 41/102/26 40/103/25 47/104/32 46/105/31 
f 40/106/25 39/107/24 48/108/33 47/109/32 
f 39/110/24 43/94/28 45/97/30 48/111/33 
f 45/97/30 44/96/29 49/112/29 50/113/30 
f 44/101/29 46/100/31 51/114/31 49/115/29 
f 46/105/31 47/104/32 52/116/32 51/117/31 
f 47/109/32 48/108/33 53/118/33 52/119/32 
f 48/111/33 45/97/30 50/113/30 53/120/33 
f 50/113/30 49/112/29 54/121/29 55/122/30 
f 49/115/29 51/114/31 56/123/31 54/124/29 
f 51/117/31 52/116/32 57/125/32 56/126/31 
f 52/119/32 53/118/33 58/127/33 57/128/32 
f 53/120/33 50/113/30 55/122/30 58/129/33 
f 55/122/30 54/121/29 59/130/29 60/131/30 
f 54/124/29 56/123/31 61/132/31 59/133/29 
f 56/126/31 57/125/32 62/134/32 61/135/31 
f 57/128/32 58/127/33 63/136/33 62/137/32 
f 58/129/33 55/122/30 60/131/30 63/138/33 
f 60/131/30 59/130/29 64/139/34 65/140/35 
f 59/133/29 61/132/31 66/141/36 64/142/34 
f 61/135/31 62/134/32 67/143/37 66/144/36 
f 62/137/32 63/136/33 68/145/38 67/146/37 
f 63/138/33 60/131/30 65/140/35 68/147/38 
s 1
f 68/148/38 65/149/35 64/150/34 66/151/36 67/152/37 
# 27 polygons

#
# object Cylinder003
#

v  7.5250 47.5448 0.9166
v  8.5050 47.5448 0.5982
v  8.5050 47.5448 -0.4322
v  7.5250 47.5448 -0.7506
v  6.9194 47.5448 0.0830
v  7.5250 46.8023 -0.7506
v  6.9194 46.8023 0.0830
v  8.5050 46.8023 -0.4322
v  8.5050 46.8023 0.5982
v  7.5250 46.8023 0.9166
v  7.5250 46.0598 -0.7506
v  6.9194 46.0598 0.0830
v  8.5050 46.0598 -0.4322
v  8.5050 46.0598 0.5982
v  7.5250 46.0598 0.9166
v  7.5250 45.3173 -0.7506
v  6.9194 45.3173 0.0830
v  8.5050 45.3173 -0.4322
v  8.5050 45.3173 0.5982
v  7.5250 45.3173 0.9166
v  7.5250 44.5748 -0.7506
v  6.9194 44.5748 0.0830
v  8.5050 44.5748 -0.4322
v  8.5050 44.5748 0.5982
v  7.5250 44.5748 0.9166
v  7.5250 43.8323 -0.7506
v  6.9194 43.8323 0.0830
v  8.5050 43.8323 -0.4322
v  8.5050 43.8323 0.5982
v  7.5250 43.8323 0.9166
# 30 vertices

vn -0.2483 0.5957 0.7638
vn 0.6498 0.5957 0.4720
vn 0.6498 0.5957 -0.4720
vn -0.2483 0.5957 -0.7638
vn -0.8032 0.5957 -0.0000
vn -0.3091 0.0000 -0.9510
vn -1.0000 0.0000 -0.0000
vn 0.8091 -0.0000 -0.5877
vn 0.8091 -0.0000 0.5877
vn -0.3091 0.0000 0.9510
vn -0.2483 -0.5957 -0.7638
vn -0.8032 -0.5957 -0.0000
vn 0.6498 -0.5957 -0.4720
vn 0.6498 -0.5957 0.4720
vn -0.2483 -0.5957 0.7638
# 15 vertex normals

vt 0.9567 0.7564 0.0000
vt 0.9995 0.7704 0.0000
vt 0.9995 0.8154 0.0000
vt 0.9567 0.8293 0.0000
vt 0.9302 0.7929 0.0000
vt 0.5628 0.0568 0.0000
vt 0.5993 0.0568 0.0000
vt 0.5993 0.2405 0.0000
vt 0.5628 0.2405 0.0000
vt 0.4325 0.0568 0.0000
vt 0.4753 0.0568 0.0000
vt 0.4753 0.2405 0.0000
vt 0.4325 0.2405 0.0000
vt 0.4794 0.0568 0.0000
vt 0.5245 0.0568 0.0000
vt 0.5245 0.2405 0.0000
vt 0.4794 0.2405 0.0000
vt 0.3855 0.0568 0.0000
vt 0.4284 0.0568 0.0000
vt 0.4284 0.2405 0.0000
vt 0.3855 0.2405 0.0000
vt 0.5264 0.0568 0.0000
vt 0.5264 0.2405 0.0000
vt 0.5993 0.4241 0.0000
vt 0.5628 0.4241 0.0000
vt 0.4753 0.4241 0.0000
vt 0.4325 0.4241 0.0000
vt 0.5245 0.4241 0.0000
vt 0.4794 0.4241 0.0000
vt 0.4284 0.4241 0.0000
vt 0.3855 0.4241 0.0000
vt 0.5264 0.4241 0.0000
vt 0.5993 0.6078 0.0000
vt 0.5628 0.6078 0.0000
vt 0.4753 0.6078 0.0000
vt 0.4325 0.6078 0.0000
vt 0.5245 0.6078 0.0000
vt 0.4794 0.6078 0.0000
vt 0.4284 0.6078 0.0000
vt 0.3855 0.6078 0.0000
vt 0.5264 0.6078 0.0000
vt 0.5993 0.7914 0.0000
vt 0.5628 0.7914 0.0000
vt 0.4753 0.7914 0.0000
vt 0.4325 0.7914 0.0000
vt 0.5245 0.7914 0.0000
vt 0.4794 0.7914 0.0000
vt 0.4284 0.7914 0.0000
vt 0.3855 0.7914 0.0000
vt 0.5264 0.7914 0.0000
vt 0.5993 0.9751 0.0000
vt 0.5628 0.9751 0.0000
vt 0.4753 0.9751 0.0000
vt 0.4325 0.9751 0.0000
vt 0.5245 0.9751 0.0000
vt 0.4794 0.9751 0.0000
vt 0.4284 0.9751 0.0000
vt 0.3855 0.9751 0.0000
vt 0.5264 0.9751 0.0000
vt 0.9730 0.6813 0.0000
vt 0.9995 0.7178 0.0000
vt 0.9730 0.7542 0.0000
vt 0.9302 0.7403 0.0000
vt 0.9302 0.6952 0.0000
# 64 texture coords

o Cylinder003
g Cylinder003
usemtl 07___Default
s 1
f 69/153/39 70/154/40 71/155/41 72/156/42 73/157/43 
s 8
f 73/158/43 72/159/42 74/160/44 75/161/45 
f 72/162/42 71/163/41 76/164/46 74/165/44 
f 71/166/41 70/167/40 77/168/47 76/169/46 
f 70/170/40 69/171/39 78/172/48 77/173/47 
f 69/174/39 73/158/43 75/161/45 78/175/48 
f 75/161/45 74/160/44 79/176/44 80/177/45 
f 74/165/44 76/164/46 81/178/46 79/179/44 
f 76/169/46 77/168/47 82/180/47 81/181/46 
f 77/173/47 78/172/48 83/182/48 82/183/47 
f 78/175/48 75/161/45 80/177/45 83/184/48 
f 80/177/45 79/176/44 84/185/44 85/186/45 
f 79/179/44 81/178/46 86/187/46 84/188/44 
f 81/181/46 82/180/47 87/189/47 86/190/46 
f 82/183/47 83/182/48 88/191/48 87/192/47 
f 83/184/48 80/177/45 85/186/45 88/193/48 
f 85/186/45 84/185/44 89/194/44 90/195/45 
f 84/188/44 86/187/46 91/196/46 89/197/44 
f 86/190/46 87/189/47 92/198/47 91/199/46 
f 87/192/47 88/191/48 93/200/48 92/201/47 
f 88/193/48 85/186/45 90/195/45 93/202/48 
f 90/195/45 89/194/44 94/203/49 95/204/50 
f 89/197/44 91/196/46 96/205/51 94/206/49 
f 91/199/46 92/198/47 97/207/52 96/208/51 
f 92/201/47 93/200/48 98/209/53 97/210/52 
f 93/202/48 90/195/45 95/204/50 98/211/53 
s 1
f 98/212/53 95/213/50 94/214/49 96/215/51 97/216/52 
# 27 polygons

#
# object Box002
#

v  5.7481 34.0502 1.8565
v  5.7481 34.0502 -1.2464
v  9.7245 34.0502 -1.2464
v  9.7245 34.0502 1.8565
v  5.7481 44.1234 1.8565
v  9.7245 44.1234 1.8565
v  9.7245 44.1234 -1.2464
v  5.7481 44.1234 -1.2464
# 8 vertices

vn -0.5774 -0.5774 0.5774
vn -0.5774 -0.5774 -0.5774
vn 0.5774 -0.5774 -0.5774
vn 0.5774 -0.5774 0.5774
vn -0.5774 0.5774 0.5774
vn 0.5774 0.5774 0.5774
vn 0.5774 0.5774 -0.5774
vn -0.5774 0.5774 -0.5774
# 8 vertex normals

vt 0.8175 0.8389 0.0000
vt 0.8175 0.7236 0.0000
vt 0.9290 0.7236 0.0000
vt 0.9290 0.8389 0.0000
vt 0.8175 0.8503 0.0000
vt 0.9290 0.8503 0.0000
vt 0.9290 0.9657 0.0000
vt 0.8175 0.9657 0.0000
vt 0.8122 0.3949 0.0000
vt 0.8122 0.5064 0.0000
vt 0.6109 0.5064 0.0000
vt 0.6109 0.3949 0.0000
vt 0.8122 0.0475 0.0000
vt 0.8122 0.1628 0.0000
vt 0.6109 0.1628 0.0000
vt 0.6109 0.0475 0.0000
vt 0.8122 0.2822 0.0000
vt 0.8122 0.3937 0.0000
vt 0.6109 0.3937 0.0000
vt 0.6109 0.2822 0.0000
vt 0.6109 0.2801 0.0000
vt 0.6109 0.1648 0.0000
vt 0.8122 0.1648 0.0000
vt 0.8122 0.2801 0.0000
# 24 texture coords

o Box002
g Box002
usemtl 07___Default
s 2
f 99/217/54 100/218/55 101/219/56 102/220/57 
s 4
f 103/221/58 104/222/59 105/223/60 106/224/61 
s 8
f 99/225/54 102/226/57 104/227/59 103/228/58 
s 16
f 102/229/57 101/230/56 105/231/60 104/232/59 
s 32
f 101/233/56 100/234/55 106/235/61 105/236/60 
s 64
f 100/237/55 99/238/54 103/239/58 106/240/61 
# 6 polygons

#
# object Box003
#

v  -1.7682 11.7612 1.1738
v  -1.7682 11.7612 0.0562
v  1.1832 11.7612 0.0562
v  1.1832 11.7612 1.1738
v  -1.7682 14.7037 1.1738
v  1.1832 14.7037 1.1738
v  1.1832 14.7037 0.0562
v  -1.7682 14.7037 0.0562
# 8 vertices

vn -0.5774 -0.5774 0.5774
vn -0.5774 -0.5774 -0.5774
vn 0.5774 -0.5774 -0.5774
vn 0.5774 -0.5774 0.5774
vn -0.5774 0.5774 0.5774
vn 0.5774 0.5774 0.5774
vn 0.5774 0.5774 -0.5774
vn -0.5774 0.5774 -0.5774
# 8 vertex normals

vt 0.8175 0.7121 0.0000
vt 0.8175 0.5968 0.0000
vt 0.9290 0.5968 0.0000
vt 0.9290 0.7121 0.0000
vt 0.8175 0.4700 0.0000
vt 0.9290 0.4700 0.0000
vt 0.9290 0.5853 0.0000
vt 0.8175 0.5853 0.0000
vt 0.8122 0.8550 0.0000
vt 0.8122 0.9665 0.0000
vt 0.6109 0.9665 0.0000
vt 0.6109 0.8550 0.0000
vt 0.8122 0.5076 0.0000
vt 0.8122 0.6229 0.0000
vt 0.6109 0.6229 0.0000
vt 0.6109 0.5076 0.0000
vt 0.8122 0.7424 0.0000
vt 0.8122 0.8539 0.0000
vt 0.6109 0.8538 0.0000
vt 0.6109 0.7424 0.0000
vt 0.8122 0.6250 0.0000
vt 0.8122 0.7403 0.0000
vt 0.6109 0.7403 0.0000
vt 0.6109 0.6250 0.0000
# 24 texture coords

o Box003
g Box003
usemtl 07___Default
s 2
f 107/241/62 108/242/63 109/243/64 110/244/65 
s 4
f 111/245/66 112/246/67 113/247/68 114/248/69 
s 8
f 107/249/62 110/250/65 112/251/67 111/252/66 
s 16
f 110/253/65 109/254/64 113/255/68 112/256/67 
s 32
f 109/257/64 108/258/63 114/259/69 113/260/68 
s 64
f 108/261/63 107/262/62 111/263/66 114/264/69 
# 6 polygons

